<?xml version="1.0" encoding="UTF-8" standalone="no"?>
<!-- Created with Inkscape (http://www.inkscape.org/) -->

<svg
   width="80mm"
   height="80mm"
   viewBox="0 0 80 80"
   version="1.1"
   id="svg5"
   xml:space="preserve"
   xmlns:xlink="http://www.w3.org/1999/xlink"
   xmlns="http://www.w3.org/2000/svg"
   xmlns:svg="http://www.w3.org/2000/svg"><defs
     id="defs2"><linearGradient
       id="linearGradient13949"><stop
         style="stop-color:#e4dd51;stop-opacity:1;"
         offset="0"
         id="stop13945" /><stop
         style="stop-color:#51dee4;stop-opacity:0.99607843"
         offset="0.5"
         id="stop14465" /><stop
         style="stop-color:#ff8080;stop-opacity:1"
         offset="1"
         id="stop13947" /></linearGradient><pattern
       patternUnits="userSpaceOnUse"
       width="303.0693"
       height="303.89652"
       patternTransform="translate(-0.35355293,-0.35355293)"
       id="pattern6800"><path
         id="path859"
         style="fill:#c93d3d;fill-opacity:1;stroke:none;stroke-width:0.999999px;stroke-linecap:butt;stroke-linejoin:miter;stroke-opacity:1"
         d="M 302.71488,0.35355293 0.35355293,302.71488 74.761755,303.89652 227.12503,151.53519 a 37.795276,37.795276 0 0 1 0,-0.002 37.795276,37.795276 0 0 1 37.79297,-37.79297 37.795276,37.795276 0 0 1 0.002,0 l 37.79492,-37.796874 z" /><path
         style="fill:#434343;fill-opacity:1;stroke:none;stroke-width:0.999999px;stroke-linecap:butt;stroke-linejoin:miter;stroke-opacity:1"
         d="M 0.35355293,75.9441 302.71575,227.1252 v 37.79528 L 0.35355293,113.73938"
         id="path1089" /><path
         style="fill:#434343;fill-opacity:1;stroke:none;stroke-width:0.999999px;stroke-linecap:butt;stroke-linejoin:miter;stroke-opacity:1"
         d="M 0.35355293,227.1252 151.53465,302.71575 H 75.9441 L 0.35355293,264.92047"
         id="path1091" /><path
         style="fill:#434343;fill-opacity:1;stroke:none;stroke-width:0.999999px;stroke-linecap:butt;stroke-linejoin:miter;stroke-opacity:1"
         d="M 75.9441,0.35355293 302.71575,113.73937 V 75.9441 L 151.53465,0.35355293"
         id="path1093" /><path
         style="fill:#c93d3d;fill-opacity:1;stroke:none;stroke-width:0.999999px;stroke-linecap:butt;stroke-linejoin:miter;stroke-opacity:1"
         d="M 0.35355293,75.9441 V 0.35355293 H 75.9441"
         id="path1597" /><path
         style="fill:none;stroke:#000000;stroke-width:0.999999px;stroke-linecap:butt;stroke-linejoin:miter;stroke-opacity:1"
         d="M 264.92047,0.35355293 0.35355293,264.92047 v 0"
         id="path5845" /><path
         style="fill:none;stroke:#000000;stroke-width:0.999999px;stroke-linecap:butt;stroke-linejoin:miter;stroke-opacity:1"
         d="m 302.71575,264.92047 -37.79528,37.79528"
         id="path5847" /><path
         id="path6164"
         style="fill:#c93d3d;fill-opacity:1;stroke:none;stroke-width:7.55906;stroke-linecap:round;stroke-linejoin:round;stroke-opacity:1"
         d="M 46.234411,153.50003 A 37.795276,37.795276 0 0 0 8.4394903,191.29496 37.795276,37.795276 0 0 0 46.234411,229.09183 37.795276,37.795276 0 0 0 84.029333,191.29496 37.795276,37.795276 0 0 0 46.234411,153.50003 Z m -13.785155,16.13282 h 29.906249 c 6.281584,0 11.337891,5.05826 11.337891,11.33984 v 21.55078 c 0,6.28159 -5.056307,11.33789 -11.337891,11.33789 H 32.449256 c -6.281584,0 -11.337891,-5.0563 -11.337891,-11.33789 v -21.55078 c 0,-6.28158 5.056307,-11.33984 11.337891,-11.33984 z" /><path
         style="fill:none;stroke:#000000;stroke-width:0.999999px;stroke-linecap:butt;stroke-linejoin:miter;stroke-opacity:1"
         d="M 60.977957,204.29606 0.35355293,264.92047 v 0"
         id="path6474" /></pattern><linearGradient
       xlink:href="#linearGradient13949"
       id="linearGradient13951"
       x1="25.681692"
       y1="61.20266"
       x2="35.303436"
       y2="51.710949"
       gradientUnits="userSpaceOnUse"
       gradientTransform="translate(-0.19357877,0.7554262)" /><pattern
       patternUnits="userSpaceOnUse"
       width="303.0693"
       height="303.89652"
       patternTransform="translate(-0.35355293,-0.35355293)"
       id="pattern6800-2"><path
         id="path859-9"
         style="fill:#c93d3d;fill-opacity:1;stroke:none;stroke-width:0.999999px;stroke-linecap:butt;stroke-linejoin:miter;stroke-opacity:1"
         d="M 302.71488,0.35355293 0.35355293,302.71488 74.761755,303.89652 227.12503,151.53519 a 37.795276,37.795276 0 0 1 0,-0.002 37.795276,37.795276 0 0 1 37.79297,-37.79297 37.795276,37.795276 0 0 1 0.002,0 l 37.79492,-37.796874 z" /><path
         style="fill:#434343;fill-opacity:1;stroke:none;stroke-width:0.999999px;stroke-linecap:butt;stroke-linejoin:miter;stroke-opacity:1"
         d="M 0.35355293,75.9441 302.71575,227.1252 v 37.79528 L 0.35355293,113.73938"
         id="path1089-1" /><path
         style="fill:#434343;fill-opacity:1;stroke:none;stroke-width:0.999999px;stroke-linecap:butt;stroke-linejoin:miter;stroke-opacity:1"
         d="M 0.35355293,227.1252 151.53465,302.71575 H 75.9441 L 0.35355293,264.92047"
         id="path1091-2" /><path
         style="fill:#434343;fill-opacity:1;stroke:none;stroke-width:0.999999px;stroke-linecap:butt;stroke-linejoin:miter;stroke-opacity:1"
         d="M 75.9441,0.35355293 302.71575,113.73937 V 75.9441 L 151.53465,0.35355293"
         id="path1093-7" /><path
         style="fill:#c93d3d;fill-opacity:1;stroke:none;stroke-width:0.999999px;stroke-linecap:butt;stroke-linejoin:miter;stroke-opacity:1"
         d="M 0.35355293,75.9441 V 0.35355293 H 75.9441"
         id="path1597-0" /><path
         style="fill:none;stroke:#000000;stroke-width:0.999999px;stroke-linecap:butt;stroke-linejoin:miter;stroke-opacity:1"
         d="M 264.92047,0.35355293 0.35355293,264.92047 v 0"
         id="path5845-9" /><path
         style="fill:none;stroke:#000000;stroke-width:0.999999px;stroke-linecap:butt;stroke-linejoin:miter;stroke-opacity:1"
         d="m 302.71575,264.92047 -37.79528,37.79528"
         id="path5847-3" /><path
         id="path6164-6"
         style="fill:#c93d3d;fill-opacity:1;stroke:none;stroke-width:7.55906;stroke-linecap:round;stroke-linejoin:round;stroke-opacity:1"
         d="M 46.234411,153.50003 A 37.795276,37.795276 0 0 0 8.4394903,191.29496 37.795276,37.795276 0 0 0 46.234411,229.09183 37.795276,37.795276 0 0 0 84.029333,191.29496 37.795276,37.795276 0 0 0 46.234411,153.50003 Z m -13.785155,16.13282 h 29.906249 c 6.281584,0 11.337891,5.05826 11.337891,11.33984 v 21.55078 c 0,6.28159 -5.056307,11.33789 -11.337891,11.33789 H 32.449256 c -6.281584,0 -11.337891,-5.0563 -11.337891,-11.33789 v -21.55078 c 0,-6.28158 5.056307,-11.33984 11.337891,-11.33984 z" /><path
         style="fill:none;stroke:#000000;stroke-width:0.999999px;stroke-linecap:butt;stroke-linejoin:miter;stroke-opacity:1"
         d="M 60.977957,204.29606 0.35355293,264.92047 v 0"
         id="path6474-0" /></pattern><clipPath
       clipPathUnits="userSpaceOnUse"
       id="clipPath1388"><rect
         style="fill:#545454;fill-opacity:1;stroke:none;stroke-width:8.59995;stroke-linecap:round;stroke-dasharray:none"
         id="rect1390"
         width="101.79525"
         height="101.79525"
         x="-10.749927"
         y="-11.555859" /></clipPath></defs><g
     id="layer1"><rect
       style="fill:#ffffff;fill-opacity:1;stroke:none;stroke-width:8.59993;stroke-linecap:round;stroke-dasharray:none"
       id="rect8644"
       width="80"
       height="80"
       x="0"
       y="0" /><circle
       style="opacity:1;fill:#545454;stroke:#000000;stroke-width:0;stroke-dasharray:none;fill-opacity:1"
       id="path1170"
       cx="40"
       cy="40"
       r="32" /><g
       id="g8610"
       clip-path="url(#clipPath1388)"
       transform="matrix(0.78589131,0,0,0.78589131,8.4482737,9.0816488)"
       style="stroke-width:1.05324"><path
         id="path11271"
         style="fill:url(#linearGradient13951);fill-opacity:1;stroke:none;stroke-width:0.278669px;stroke-linecap:butt;stroke-linejoin:miter;stroke-opacity:1"
         d="m 29.719633,41.282751 c -1.904587,8.146401 -6.264148,14.361052 -16.196427,16.19126 11.509097,2.249665 13.986223,9.151633 16.196427,16.19126 C 32.089686,61.86041 39.04467,59.75685 45.915544,57.474011 36.110116,55.659133 31.606278,49.535026 29.719633,41.282751 Z" /><path
         style="fill:none;stroke:#ffffff;stroke-width:9.05786;stroke-linecap:round;stroke-dasharray:none"
         d="M 40.525584,39.579472 93.763677,-13.658634"
         id="path696" /><path
         style="fill:none;stroke:#ffffff;stroke-width:9.05786;stroke-linecap:round;stroke-dasharray:none"
         d="M 57.458919,39.579472 110.69702,-13.658634"
         id="path1626" /><path
         style="fill:none;stroke:#ffffff;stroke-width:9.05786;stroke-linecap:round;stroke-dasharray:none"
         d="M 74.392254,39.579472 127.63037,-13.658634"
         id="path1628" /></g></g></svg>
